#!OML:ASF F:\VICON\USERDATA\INSTALL\rory3\rory3.ASF
:FULLY-SPECIFIED
:DEGREES
81
root 3.37269 17.766 0.890601 13.353 -46.9125 6.13213
lowerback -9.04034 0.951672 -1.87964
upperback -10.7104 1.0764 -0.151508
thorax -6.20789 0.54853 0.940655
lowerneck -5.15577 18.4895 12.6847
upperneck 11.7119 23.9161 -1.17858
head 5.99521 12.1449 -0.283324
rclavicle -1.37261e-013 -1.90833e-014
rhumerus 6.0771 -31.1845 14.6728
rradius 127.886
rwrist -57.2625
rhand -4.61326 -46.004
rfingers 7.12502
rthumb 21.165 -74.8687
lclavicle -1.37261e-013 -1.90833e-014
lhumerus 28.3416 21.652 -18.1315
lradius 33.231
lwrist 42.4201
lhand -31.4412 -25.9966
lfingers 7.12502
lthumb -4.70916 3.93103
rfemur -8.34551 6.72529 -4.59243
rtibia 18.0848
rfoot 2.00135 -27.2538
rtoes -11.6974
lfemur -14.9599 -7.35414 -19.9045
ltibia 5.1684e-015
lfoot 1.37825 25.6301
ltoes 5.70655
82
root 3.36937 17.7635 0.87604 13.3543 -46.9322 6.08632
lowerback -9.19248 1.06911 -1.79849
upperback -10.6027 1.23502 -0.216867
thorax -6.00595 0.619324 0.835911
lowerneck -5.5064 18.4041 12.6287
upperneck 12.0079 23.7501 -1.07385
head 6.11698 12.0655 -0.217557
rclavicle -5.10877e-014 -1.78906e-014
rhumerus 5.78224 -31.2739 14.88
rradius 127.946
rwrist -57.3392
rhand -4.92358 -46.1911
rfingers 7.12502
rthumb 20.8668 -75.0889
lclavicle -5.10877e-014 -1.78906e-014
lhumerus 28.5473 21.5916 -18.0245
lradius 33.263
lwrist 42.6634
lhand -31.9068 -26.7699
lfingers 7.12502
lthumb -5.15872 3.14735
rfemur -8.24268 6.51471 -4.50313
rtibia 17.9593
rfoot 0.611602 -27.3016
rtoes -8.53933
lfemur -14.9392 -7.31451 -19.8421
ltibia 3.57812e-015
lfoot 1.59325 25.5514
ltoes 5.30468
83
root 3.36556 17.7649 0.857092 13.4455 -47.0323 5.88382
lowerback -9.24431 1.20827 -1.70114
upperback -10.565 1.42056 -0.181478
thorax -5.93924 0.707422 0.826782
lowerneck -5.41463 18.2952 12.6877
upperneck 11.9033 23.6292 -1.23462
head 6.08828 12.0001 -0.296605
rclavicle 3.05134e-014 -2.78299e-015
rhumerus 5.63147 -31.3158 15.1323
rradius 128.011
rwrist -57.474
rhand -5.05106 -46.2265
rfingers 7.12502
rthumb 20.7444 -75.1377
lclavicle 3.05134e-014 -2.78299e-015
lhumerus 29.0652 22.0359 -17.1737
lradius 33.1188
lwrist 41.8884
lhand -31.5661 -25.8469
lfingers 7.12502
lthumb -4.82975 4.07807
rfemur -8.25355 6.30847 -4.25258
rtibia 17.8597
rfoot 4.07565 -26.7756
rtoes -15.2398
lfemur -14.9047 -7.16012 -19.6605
ltibia -2.0276e-014
lfoot 1.72671 25.4826
ltoes 4.87308
84
root 3.36388 17.7663 0.833457 13.4673 -47.1466 5.68207
lowerback -9.11216 1.32204 -1.63203
upperback -10.5692 1.57079 -0.113935
thorax -6.02124 0.782089 0.861354
lowerneck -5.2507 18.1803 12.8248
upperneck 11.8955 23.5205 -1.49767
head 6.10174 11.9396 -0.41067
rclavicle -2.68359e-015 -1.27222e-014
rhumerus 5.63927 -31.3071 15.2526
rradius 128.005
rwrist -57.3738
rhand -4.7672 -45.8703
rfingers 7.12502
rthumb 21.0171 -74.7515
lclavicle -2.68359e-015 -1.27222e-014
lhumerus 29.5415 22.4462 -16.2611
lradius 32.9398
lwrist 40.8252
lhand -31.2231 -24.847
lfingers 7.12502
lthumb -4.49859 5.08524
rfemur -8.21853 6.45313 -4.01651
rtibia 17.7667
rfoot 5.29355 -26.5411
rtoes -17.6455
lfemur -14.8223 -6.98656 -19.4703
ltibia 3.97569e-015
lfoot 1.65316 25.4988
ltoes 4.92954
